<svg width="300" height="109" viewBox="0 0 600 209" xmlns="http://www.w3.org/2000/svg"><title>uber-logo</title><path d="M80.7407 180.8966c28.1482 0 50.3704-22.2414 50.3704-54.1207V0h30.3704v204.6207H131.111v-19.2759c-14.074 14.0862-32.5926 22.2414-54.074 22.2414C33.3332 208.3276 0 176.4482 0 128.2586V0h30.3704v126.7759c0 32.6207 22.2222 54.1207 50.3703 54.1207zM184.4444 0h29.6297v74.8793c13.3333-14.0862 31.8518-22.2414 52.5926-22.2414 43.7037 0 78.5185 34.8449 78.5185 77.8449 0 43-34.8148 77.8448-78.5185 77.8448-20.7408 0-40-8.1552-53.3334-22.2414v18.5345h-28.8889V0zm80.7408 182.3793c28.1481 0 51.1111-22.9827 51.1111-51.8965 0-28.9138-22.963-51.8966-51.1111-51.8966-28.1482 0-51.1111 22.9828-51.1111 51.8966s22.2222 51.8965 51.111 51.8965zM434.074 52.638c42.963 0 74.8148 33.3621 74.8148 77.8449v9.6379H387.4074c4.4445 24.4655 24.4445 42.2586 49.6296 42.2586 17.037 0 31.8519-6.6724 42.963-22.2414l21.4815 15.569c-14.8148 20.0172-37.037 31.8793-64.4445 31.8793-44.4444 0-79.2592-33.362-79.2592-77.8448-.7408-41.5173 32.5926-77.1035 76.2963-77.1035zm-46.6667 63.7587h91.1111c-5.1852-22.9828-23.7037-37.8104-45.1852-37.8104-22.2222 0-40 14.8276-45.9259 37.8104zm200-34.1035c-19.2593 0-33.3333 14.8276-33.3333 37.8103v84.5173h-29.6297V55.6034h28.889V74.138c7.4073-11.862 19.2592-19.2758 35.5555-19.2758H600v27.431h-12.5926z" fill="#000" fill-rule="nonzero"/></svg>